<mxfile host="app.diagrams.net" modified="2023-12-01T11:31:19.000Z" agent="Mozilla/5.0 (Macintosh; Intel Mac OS X 10_15_7) AppleWebKit/537.36 (KHTML, like Gecko) Chrome/119.0.0.0 Safari/537.36" version="22.1.5" etag="EvQots3a5__kK2wG-bM0" type="github">
  <diagram name="第 1 页" id="bc7i4F_JPmWCfy3ohz7b">
    <mxGraphModel>
      <root>
        <mxCell id="0" />
        <mxCell id="1" parent="0" />
      </root>
    </mxGraphModel>
  </diagram>
</mxfile>
